<svg id="newlogoalefile" xmlns="http://www.w3.org/2000/svg" width="446.827" height="184.188" viewBox="0 0 446.827 184.188">
  <line id="Line_4" data-name="Line 4" x1="4.596" transform="translate(226.914 175.183)" fill="none" stroke="#000" stroke-miterlimit="10" stroke-width="3"/>
  <path id="Path_452" data-name="Path 452" d="M226.914,175.183H1.5V1.5H445.327V175.183H425.5" fill="none" stroke="#000" stroke-miterlimit="10" stroke-width="3"/>
  <rect id="Rectangle_5" data-name="Rectangle 5" width="119.013" height="8.016" transform="translate(264.857 107.862) rotate(-35.2)"/>
  <path id="Path_453" data-name="Path 453" d="M811.813,290v7.749H759.174V290H706v98.866h44.623v8.016h8.551v-7.749h52.639v7.749h61.831V290Zm0,57.182H759.174v-8.016h52.639Z" transform="translate(-556.068 -267.257)" fill="none"/>
  <path id="Path_454" data-name="Path 454" d="M99.1,211.844h98.385L148.159,113.7Z" transform="translate(-71.521 -82.22)" fill="none"/>
  <path id="Path_455" data-name="Path 455" d="M361.315,179.866V81H300.9l53.708,106.882h6.707v-8.016Z" transform="translate(-219.399 -58.257)" fill="none"/>
  <path id="Path_456" data-name="Path 456" d="M123.317,89.738l-3.768-7.508L121.981,81h-3.34L65.2,187.882h9.058Z" transform="translate(-46.679 -58.257)"/>
  <path id="Path_457" data-name="Path 457" d="M271.032,81,268.6,82.229l3.768,7.508,49.326,98.144h9.245L277.231,81Z" transform="translate(-195.73 -58.257)"/>
  <rect id="Rectangle_6" data-name="Rectangle 6" width="8.016" height="98.866" transform="translate(141.916 22.743)"/>
  <path id="Path_458" data-name="Path 458" d="M535.016,451H527v8.016h52.639V451Z" transform="translate(-385.084 -329.391)"/>
  <rect id="Rectangle_7" data-name="Rectangle 7" width="52.639" height="7.749" transform="translate(203.106 121.876)"/>
  <rect id="Rectangle_8" data-name="Rectangle 8" width="52.639" height="8.016" transform="translate(203.106 71.909)"/>
  <rect id="Rectangle_9" data-name="Rectangle 9" width="52.639" height="7.749" transform="translate(203.106 22.743)"/>
  <rect id="Rectangle_10" data-name="Rectangle 10" width="8.016" height="106.882" transform="translate(317.577 22.743)"/>
  <path id="Path_459" data-name="Path 459" d="M1059.5,828.494a29.2,29.2,0,0,1,3.981-.294c2.832,0,5,.748,6.253,2.138a6.119,6.119,0,0,1,1.6,4.329,7.187,7.187,0,0,1-1.844,4.863c-1.282,1.363-3.554,2.218-6.546,2.218-1.2,0-2.3,0-3.447-.107Zm.962,12.318a17.99,17.99,0,0,0,2.645.134c5.077,0,7.241-2.779,7.241-6.253S1068.291,829,1063.4,829a13.387,13.387,0,0,0-2.939.267Z" transform="translate(-815.111 -661.648)"/>
  <path id="Path_460" data-name="Path 460" d="M1111.062,847.07a3.8,3.8,0,0,0,4.008,4.168,6.348,6.348,0,0,0,3.046-.615l.24.775a7.359,7.359,0,0,1-3.393.668,4.587,4.587,0,0,1-4.863-4.756c0-3.233,2.057-5.211,4.756-5.211,3.5,0,4.115,3.126,4.115,4.382a3.4,3.4,0,0,1-.027.588Zm6.921-.775a3.148,3.148,0,0,0-3.26-3.42,3.663,3.663,0,0,0-3.607,3.42Z" transform="translate(-852.19 -671.833)"/>
  <path id="Path_461" data-name="Path 461" d="M1150.747,850.538a4.65,4.65,0,0,0,2.378.695c1.657,0,2.378-.855,2.378-1.817s-.748-1.657-2.218-2.138-2.565-1.443-2.565-2.565a2.877,2.877,0,0,1,3.1-2.619,4.114,4.114,0,0,1,2.3.615l-.374.8a3.661,3.661,0,0,0-2.084-.615,1.777,1.777,0,0,0-2,1.71c0,.909.8,1.47,2.218,1.951s2.592,1.336,2.592,2.779-1.256,2.726-3.42,2.726a5.4,5.4,0,0,1-2.645-.695Z" transform="translate(-881.722 -671.828)"/>
  <path id="Path_462" data-name="Path 462" d="M1183.8,830.3a.828.828,0,0,1-.828.828.815.815,0,1,1,.828-.828Zm-1.283,12.291v-9.486h.962v9.486Z" transform="translate(-905.023 -662.6)"/>
  <path id="Path_463" data-name="Path 463" d="M1206.079,842.341c-.053.748-.08,1.523-.08,2.271v5.8c0,2.325-.561,3.634-1.443,4.436a5.762,5.762,0,0,1-3.581,1.176,5.911,5.911,0,0,1-3.367-.935l.347-.775a5.692,5.692,0,0,0,3.18.909c2.3,0,3.9-1.149,3.9-4.035V849.8h-.027a4.181,4.181,0,0,1-3.794,2.031,4.547,4.547,0,0,1-4.516-4.623,4.836,4.836,0,0,1,4.756-5.1c2.432,0,3.207,1.069,3.634,1.977h.053l.053-1.737Zm-1.042,3.794a2.968,2.968,0,0,0-.134-.989,3.474,3.474,0,0,0-3.367-2.271c-2.271,0-3.875,1.657-3.875,4.2a3.747,3.747,0,0,0,3.848,3.955,3.634,3.634,0,0,0,3.34-2.271,3.126,3.126,0,0,0,.187-1.015Z" transform="translate(-915.65 -671.833)"/>
  <path id="Path_464" data-name="Path 464" d="M1243.58,844.612a21.5,21.5,0,0,0-.08-2.271h.908l.08,1.9h.053a4.009,4.009,0,0,1,3.661-2.138c.855,0,3.688.4,3.688,4.329v5.4h-.962v-5.4c0-1.87-.828-3.5-2.993-3.5a3.527,3.527,0,0,0-3.233,2.245,2.723,2.723,0,0,0-.134.855v5.8h-.989Z" transform="translate(-949.945 -671.833)"/>
  <path id="Path_465" data-name="Path 465" d="M1285.063,873.435a.882.882,0,0,1,.855-.935.845.845,0,0,1,.828.935.855.855,0,1,1-1.683,0Z" transform="translate(-980.393 -694.11)"/>
  <path id="Path_466" data-name="Path 466" d="M1312.27,829.4h-4.97v-.8h10.9v.8h-4.97v12.532h-.962Z" transform="translate(-996.697 -661.941)"/>
  <path id="Path_467" data-name="Path 467" d="M1353,825.5h.989v6.573h.027a3.82,3.82,0,0,1,1.47-1.523,4.168,4.168,0,0,1,2.138-.615c.908,0,3.687.4,3.687,4.3v5.424h-.962v-5.371c0-1.844-.8-3.5-2.993-3.5a3.581,3.581,0,0,0-3.206,2.218,2.325,2.325,0,0,0-.16,1.015v5.638H1353Z" transform="translate(-1030.186 -659.669)"/>
  <path id="Path_468" data-name="Path 468" d="M1397.2,830.3a.828.828,0,0,1-.828.828.815.815,0,1,1,.828-.828Zm-1.283,12.291v-9.486h.962v9.486Z" transform="translate(-1061.402 -662.6)"/>
  <path id="Path_469" data-name="Path 469" d="M1413.18,844.612a21.5,21.5,0,0,0-.08-2.271h.909l.08,1.9h.053a4.009,4.009,0,0,1,3.661-2.138c.855,0,3.688.4,3.688,4.329v5.4h-.962v-5.4c0-1.87-.8-3.5-2.993-3.5a3.527,3.527,0,0,0-3.233,2.245,3.832,3.832,0,0,0-.134.855v5.8h-.989Z" transform="translate(-1074.227 -671.833)"/>
  <path id="Path_470" data-name="Path 470" d="M1458.162,834.745h.027a13.594,13.594,0,0,1,1.069-1.1l3.687-3.474h1.229l-4.222,3.9,4.836,5.585h-1.2l-4.329-5.023-1.1,1.042v3.981h-.962V825.5h.962Z" transform="translate(-1106.543 -659.669)"/>
  <path id="Path_471" data-name="Path 471" d="M1490.363,873.242a.855.855,0,1,1,1.683,0,.882.882,0,0,1-.855.909.855.855,0,0,1-.828-.909Z" transform="translate(-1130.835 -693.917)"/>
  <path id="Path_472" data-name="Path 472" d="M1531.023,840.74a10.021,10.021,0,0,1-4.168.775c-3.607,0-7.054-2.191-7.054-6.84,0-3.5,2.592-6.974,7.589-6.974a8.493,8.493,0,0,1,3.607.668l-.321.828a7.534,7.534,0,0,0-3.233-.668c-4.329,0-6.627,2.619-6.627,6.226s2.191,5.932,6.386,5.932a8.284,8.284,0,0,0,3.527-.721Z" transform="translate(-1152.416 -661.281)"/>
  <path id="Path_473" data-name="Path 473" d="M1577.567,846.963a4.919,4.919,0,0,1-5.1,5.1,4.74,4.74,0,0,1-4.863-4.89,5.116,5.116,0,0,1,5.023-5.077A4.915,4.915,0,0,1,1577.567,846.963Zm-9,.16a3.93,3.93,0,0,0,3.981,4.142,4.037,4.037,0,0,0,4.061-4.249,3.983,3.983,0,0,0-3.981-4.142C1569.845,842.875,1568.562,844.906,1568.562,847.123Z" transform="translate(-1187.444 -671.833)"/>
  <path id="Path_474" data-name="Path 474" d="M1620.625,825.5v11.864a22.01,22.01,0,0,0,.08,2.3h-.908l-.053-1.977h-.027a4.1,4.1,0,0,1-3.848,2.218,4.584,4.584,0,0,1-4.569-4.783,4.834,4.834,0,0,1,4.783-5.184,3.893,3.893,0,0,1,3.527,1.817h.027V825.5Zm-.989,8.47a3.18,3.18,0,0,0-3.527-3.26c-2.271,0-3.848,1.737-3.848,4.3,0,2.138,1.256,4.088,3.821,4.088a3.554,3.554,0,0,0,3.447-2.619,2.591,2.591,0,0,0,.107-.828Z" transform="translate(-1219.466 -659.669)"/>
  <path id="Path_475" data-name="Path 475" d="M1656.762,847.07a3.8,3.8,0,0,0,4.008,4.168,6.264,6.264,0,0,0,3.046-.615l.267.775a7.58,7.58,0,0,1-3.393.668,4.6,4.6,0,0,1-4.89-4.756c0-3.233,2.057-5.211,4.756-5.211,3.527,0,4.142,3.126,4.142,4.382a1.736,1.736,0,0,1-.053.588Zm6.921-.775a3.125,3.125,0,0,0-3.233-3.42c-2.832,0-3.42,1.977-3.634,3.42Z" transform="translate(-1252.076 -671.833)"/>
  <path id="Path_476" data-name="Path 476" d="M1695.7,873.435a.882.882,0,0,1,.855-.935.845.845,0,0,1,.828.935.844.844,0,1,1-1.683,0Z" transform="translate(-1281.31 -694.11)"/>
</svg>
